<?xml version="1.0" encoding="UTF-8" standalone="no"?>
<svg
   viewBox="0 0 14434.791 14466.737"
   xml:space="preserve"
   version="1.1"
   id="svg14"
   width="14434.791"
   height="14466.737"
   xmlns="http://www.w3.org/2000/svg"
   xmlns:svg="http://www.w3.org/2000/svg"><defs
     id="defs14" /><path
     d="m -902.44674,-1108.3265 c 0,0 6.01,-7.13 17.18,-9.57 11.17,-2.44 24.77,2.06 27.77,9.66 3.24,8.21 2.07,17.42 -3.38,24.03 -5.73,6.95 -14.55,14.36 -29.38,13.23 -11.77,-0.89 -15.49,-5.82 -15.49,-5.82 z"
     style="fill:#fcd41e"
     id="path2" /><path
     d="m -873.44674,-1100.0665 c 2.94,7.73 3.57,15.39 3.47,19.24 -0.09,3.85 -0.38,5.16 -0.38,5.16 0,0 3.94,-2.53 6.38,-4.88 2.11,-2.03 3.66,-4.22 3.66,-4.22 0,0 1.03,-11.17 -3,-20.55 -4.03,-9.38 -12.38,-13.1 -12.38,-13.1 0,0 -2.86,-0.61 -6.1,-0.23 -3.2,0.37 -7.13,1.78 -7.13,1.78 0,0 10.69,4.22 15.48,16.8 z m -24.22,-12.49 c 0,0 6.85,3.66 11.26,14.08 4.69,11.07 3.75,27.41 3.75,27.41 0,0 -2.91,0.45 -6.1,0.38 -2.06,-0.05 -5.73,-0.8 -5.73,-0.8 0,0 1.05,-13.19 -2.71,-21.92 -1.67,-3.87 -5.91,-8.73 -5.91,-8.73 l 0.61,-6.57 z"
     style="fill:#414340"
     id="path3" /><path
     d="m -932.57674,-1086.8365 c 0,0 -4.97,2.16 -9.48,3.1 -4.5,0.94 -8.26,1.03 -9.57,1.13 -1.31,0.09 -3,0.66 -2.72,3.57 0.24,2.53 3.94,2.27 6.19,2.16 3.66,-0.19 8.82,-1.13 13.33,-2.72 4.51,-1.59 9.1,-4.04 9.1,-4.04 z"
     style="fill:#5a6066"
     id="path4" /><path
     d="m -906.24674,-1111.1465 c 0,0 21.68,-27.59 24.64,-31.53 2.96,-3.94 7.32,-10.98 12.25,-11.12 4.93,-0.14 9.43,4.36 11.68,10.98 2.25,6.62 2.39,13.29 -1.13,17.74 -4.79,6.05 -18.02,15.35 -28.44,18.02 -10.42,2.67 -16.47,3.38 -16.47,3.38 z"
     style="opacity:0.7;fill:#6da3af"
     id="path5" /><path
     d="m -907.09674,-1113.1165 c 0,0 15.2,-26.47 18.44,-32.8 3.24,-6.34 6.19,-12.25 5.35,-16.26 -0.68,-3.22 -7.04,-6.55 -15.77,-5.28 -8.73,1.27 -16.25,4.84 -17.31,12.95 -1.13,8.59 -0.56,33.22 -0.56,33.22 l -1.27,12.11 11.26,1.69 z"
     style="opacity:0.7;fill:#a1c5cb"
     id="path6" /><path
     d="m -958.40674,-1128.9565 c 0,0 -5.84,-4.08 -7.95,4.65 -2.45,10.09 5.06,8.3 5.06,8.3 z"
     id="path7" /><path
     d="m -941.58674,-1138.8765 c 0,0 -1.41,-6.97 -3.8,-11.9 -2.39,-4.93 -5.62,-8.26 -7.18,-9.08 -1.62,-0.84 -5.95,-1.35 -10.21,-1.48 -2.89,-0.09 -5.7,-0.14 -5.7,2.04 0,2.54 3.24,2.87 5.49,3.1 3.24,0.33 6.67,0.75 7.88,1.06 2.25,0.56 5.14,6.19 6.05,8.73 0.92,2.53 2.6,9.08 2.6,9.08 z"
     style="fill:#848484"
     id="path8" /><path
     d="m -913.85674,-1117.1965 2.53,4.36 c 0,0 4.22,-3.52 4.86,-3.45 0.63,0.07 1.76,5.91 1.76,5.91 0,0 3.94,-0.99 4.5,-0.63 0.56,0.35 0.28,4.58 0.28,4.58 0,0 4.93,0.28 5.07,0.7 0.14,0.42 -2.18,4.36 -2.18,4.36 0,0 3.94,2.39 3.87,3.03 -0.07,0.63 -3.38,3.24 -3.38,3.24 0,0 3.1,3.52 2.82,4.43 -0.28,0.91 -4.72,1.13 -4.72,1.13 0,0 1.06,4.58 0.77,5 -0.28,0.42 -5.21,0.35 -5.21,0.35 0,0 2.39,3.87 2.04,4.29 -0.35,0.42 -7.63,1.92 -7.63,1.92 0,0 -3.66,4.08 -6.31,4.62 -2.62,0.53 -3.82,-0.07 -3.82,-0.07 l -3.07,-3.03 c 0,0 -6.83,0.63 -7.46,0.21 -0.63,-0.42 -0.77,-8.45 -0.77,-8.45 0,0 -4.36,0.33 -4.65,-0.21 -0.29,-0.54 0.63,-5 0.63,-5 l 11.4,-18.16 z"
     style="fill:#fe8d00"
     id="path9" /><path
     d="m -923.07674,-1081.8665 c -2.72,-1.93 -5.85,1.86 -7.53,3.17 -2.53,1.97 -4.93,5.42 -13.16,7.6 -4.84,1.28 -4.58,3.03 -4.08,4.65 0.62,2.04 3.59,1.83 7.18,0.84 3.59,-0.99 7.77,-3.23 9.43,-4.43 2.04,-1.48 6.9,-6.05 7.81,-6.9 0.92,-0.84 2.53,-3.38 0.35,-4.93 z m 7.6,2.18 c -2.29,-0.93 -3.8,0.7 -5,4.08 -1.2,3.38 -3.45,9.64 -4.5,12.04 -1.06,2.39 -3.77,6.88 -0.77,8.38 3.24,1.62 4.72,-1.27 5.63,-3.24 0.91,-1.97 3.66,-8.52 4.43,-11.12 0.77,-2.6 1.2,-4.01 1.55,-5 0.35,-0.98 1.27,-4.08 -1.34,-5.14 z m 7.82,-0.35 c -3.2,0.43 -2.6,4.22 -2.39,6.97 0.21,2.75 0.63,11.61 0.49,13.44 -0.14,1.83 0,4.93 3.24,4.86 3.24,-0.07 3.1,-3.66 3.17,-4.79 0.07,-1.13 -0.49,-11.97 -0.56,-13.66 -0.08,-1.68 0.2,-7.38 -3.95,-6.82 z"
     style="fill:#848484"
     id="path10" /><path
     d="m -956.78674,-1132.8965 c -5.04,5.23 -8.46,20.64 -5.28,29.63 3.24,9.15 9.85,15.42 21.68,15.91 11.83,0.49 22.17,-6.9 25.9,-19.64 3.57,-12.2 -0.97,-27.23 -13.94,-31.82 -10.34,-3.65 -20.9,-1.82 -28.36,5.92 z"
     style="fill:#febb00"
     id="path11" /><path
     d="m -927.92674,-1117.0565 c 0,5.33 -4.19,9.65 -9.36,9.65 -5.17,0 -9.36,-3.38 -9.36,-9.65 0,-5.33 4.19,-9.71 9.36,-9.65 5.77,0.07 9.36,4.32 9.36,9.65 z"
     id="path12" /><path
     d="m -959.25674,-1101.7365 c 0.74,-0.74 2.46,-3.45 4.22,-1.62 1.76,1.83 -1.34,4.15 -1.9,4.65 -0.75,0.66 -2.25,1.06 -3.03,-0.07 -0.53,-0.78 -0.2,-2.05 0.71,-2.96 z"
     style="fill:#fe8d00"
     id="path13" /><path
     d="m -945.24674,-1163.6565 c -0.26,1.95 0.73,2.55 3.31,3.24 2.34,0.62 7.1,1.75 8.24,2.53 0.92,0.63 3.17,6.41 3.73,13.51 0.29,3.68 0.14,7.18 0,9.92 -0.12,2.28 0.35,3.8 2.18,4.08 1.66,0.26 3,-0.87 3.24,-4.08 0.28,-3.87 0.5,-5.94 0,-10.98 -0.38,-3.83 -1.03,-6.99 -2.25,-11.12 -1,-3.38 -2.57,-5.19 -4.15,-6.34 -1.91,-1.37 -6.05,-2.18 -9.43,-2.53 -2.84,-0.28 -4.59,-0.32 -4.87,1.77 z"
     style="fill:#848484"
     id="path14" /></svg>
